<svg width="189" height="148" viewBox="0 0 189 148" fill="none" xmlns="http://www.w3.org/2000/svg">
<path d="M125.594 78.4707C117.132 85.6926 106.308 90.0242 94.4999 90.0242C82.6918 90.0242 71.8691 85.6907 63.4062 78.4707C48.6465 85.8982 38.2163 101.578 38.2163 119.941V140.573C38.2163 144.699 41.3654 148 45.301 148H143.502C147.438 148 150.587 144.699 150.587 140.573V119.941C150.783 101.784 140.549 85.8989 125.593 78.4707H125.594Z" fill="#D4FDC0"/>
<path d="M94.5 73.3128C113.195 73.3128 128.349 57.426 128.349 37.8261C128.349 18.2247 113.195 2.54492 94.5 2.54492C75.8048 2.54492 60.6511 18.4318 60.6511 38.0317C60.6511 57.6315 75.8048 73.3128 94.5 73.3128Z" fill="#D4FDC0"/>
<path d="M4.3675 18.8448C1.80873 19.6694 0.234079 22.7652 1.21845 25.4477C2.39901 29.5737 3.18697 33.6997 3.18697 38.0331C3.18697 42.3665 2.59668 46.4925 1.21845 50.6185C0.431859 53.3011 1.80873 56.3954 4.3675 57.2215C4.95778 57.4272 5.35176 57.4273 5.94204 57.4273C8.10687 57.4273 10.0755 55.9823 10.6655 53.92C12.24 48.7621 13.0266 43.3982 13.0266 38.0331C13.0266 32.6692 12.24 27.3042 10.6655 22.1463C9.87754 19.4637 7.12246 17.8128 4.36732 18.8448L4.3675 18.8448Z" fill="#D4FDC0"/>
<path d="M19.7176 9.56056C17.1588 10.5924 15.9781 13.6866 16.9625 16.3691C19.5213 23.1776 20.8981 30.398 20.8981 37.8254C20.8981 45.2529 19.5198 52.4748 16.9625 59.2818C15.9782 61.9644 17.1588 65.0587 19.7176 66.0903C20.3079 66.2961 20.8981 66.5033 21.4884 66.5033C23.4569 66.5033 25.424 65.2656 26.2119 63.2019C29.1632 55.1555 30.7378 46.6961 30.7378 37.8251C30.7378 28.9542 29.1633 20.4948 26.2119 12.4483C25.2276 9.97297 22.2763 8.52941 19.7176 9.55997L19.7176 9.56056Z" fill="#D4FDC0"/>
<path d="M41.7587 72.6937C46.2847 61.7588 48.4494 49.9979 48.4494 38.0329C48.4494 25.8605 46.0883 14.0996 41.5608 3.16477C40.3803 0.482191 37.4274 -0.755644 35.0666 0.482192C32.5078 1.71988 31.3271 4.81561 32.5078 7.29069C36.4434 16.7821 38.6081 27.098 38.6081 37.8254C38.6081 48.5544 36.6396 58.8703 32.7039 68.3602C31.5233 71.0428 32.7039 74.1371 35.2627 75.1687C35.853 75.3745 36.6409 75.5817 37.2312 75.5817C39.002 75.789 40.9707 74.7571 41.7586 72.6933L41.7587 72.6937Z" fill="#D4FDC0"/>
<path d="M185.813 38.0324C185.813 33.6989 186.403 29.5729 187.782 25.4469C188.568 22.7644 187.191 19.67 184.633 18.844C182.074 18.0194 179.122 19.4629 178.335 22.1454C176.76 27.3034 175.973 32.6673 175.973 38.0323C175.973 43.3962 176.76 48.7612 178.335 53.9192C179.121 56.1888 180.893 57.4264 183.058 57.4264C183.648 57.4264 184.042 57.4264 184.633 57.2206C187.191 56.396 188.766 53.3002 187.782 50.6177C186.403 46.4917 185.813 42.1583 185.813 38.0323L185.813 38.0324Z" fill="#D4FDC0"/>
<path d="M169.282 9.56045C166.724 8.52857 163.772 9.76625 162.788 12.4488C159.837 20.4953 158.262 28.9547 158.262 37.8256C158.262 46.491 159.837 55.156 162.788 63.2024C163.575 65.2662 165.347 66.5038 167.512 66.5038C168.102 66.5038 168.692 66.298 169.282 66.0908C171.841 65.0589 173.022 61.9648 172.038 59.2823C169.479 52.4738 168.102 45.2534 168.102 37.8259C168.102 30.3985 169.48 23.1766 172.038 16.3695C173.022 13.6884 171.84 10.7986 169.282 9.56105L169.282 9.56045Z" fill="#D4FDC0"/>
<path d="M153.932 0.481641C151.374 -0.756048 148.422 0.48164 147.438 3.16422C142.912 14.0991 140.55 25.86 140.55 38.0324C140.55 50.2048 142.911 61.7582 147.24 72.6931C148.027 74.7569 149.799 75.7873 151.766 75.7873C152.357 75.7873 153.144 75.5815 153.735 75.3743C156.294 74.1366 157.474 71.2483 156.294 68.5658C152.358 58.8688 150.389 48.5529 150.389 38.031C150.389 27.3021 152.358 16.9862 156.49 7.49628C157.672 4.81513 156.49 1.72084 153.932 0.481823L153.932 0.481641Z" fill="#D4FDC0"/>
</svg>
