<svg width="200" height="73" viewBox="0 0 200 73" fill="none" xmlns="http://www.w3.org/2000/svg">
<path d="M35.6177 40.9253C28.4645 40.9253 21.7309 44.4747 17.5233 50.3209L22.3621 53.662C25.5175 49.2765 30.3577 46.7717 35.6177 46.7717C40.8777 46.7717 45.7165 49.2768 48.8733 53.662L53.7121 50.3209C49.5045 44.4745 42.5609 40.9253 35.6177 40.9253Z" fill="#E2D1FF"/>
<path d="M22.5729 20.6716H28.4641V33.4084H22.5729V20.6716Z" fill="#E2D1FF"/>
<path d="M42.5609 20.6716H48.4521V33.4084H42.5609V20.6716Z" fill="#E2D1FF"/>
<path d="M164.382 0.000369808C150.076 0.000369808 137.661 8.97803 132.191 21.7148C126.721 8.97803 114.306 0.000369808 100 0.000369808C85.6936 0.000369808 73.2789 8.97952 67.8088 21.7163C62.3388 8.97952 49.9241 0.00186042 35.6176 0.00186042C16.2608 0.00186042 0.480835 16.2883 0.480835 36.3334C0.480835 56.379 16.2608 72.665 35.6176 72.665C49.9241 72.665 62.3388 63.6874 67.8088 50.9506C73.2789 63.6874 85.6936 72.665 100 72.665C114.306 72.6636 126.721 63.6844 132.191 50.9476C137.661 63.6844 150.076 72.662 164.382 72.662C183.739 72.662 199.519 56.3756 199.519 36.3305C199.519 16.2864 183.95 0 164.382 0V0.000369808ZM35.6176 66.8164C19.4165 66.8164 6.16088 53.0352 6.16088 36.3308C6.16088 19.6264 19.2053 5.84528 35.4065 5.84528C51.6077 5.84528 64.8632 19.6264 64.8632 36.3308C64.8632 53.0352 51.6077 66.8164 35.6176 66.8164V66.8164ZM100 66.8164C83.7989 66.8164 70.7544 53.2451 70.7544 36.3308C70.7544 19.4184 83.7989 5.84528 100 5.84528C116.201 5.84528 129.246 19.6264 129.246 36.3308C129.246 53.0352 116.201 66.8164 100 66.8164ZM164.382 66.8164C148.392 66.8164 135.137 53.0352 135.137 36.3308C135.137 19.6264 148.392 5.84528 164.382 5.84528C180.374 5.84528 193.839 19.6264 193.839 36.3308C193.839 53.0352 180.584 66.8164 164.382 66.8164Z" fill="#E2D1FF"/>
<path d="M164.382 49.0681C159.122 49.0681 154.284 46.563 151.127 42.1777L146.288 45.5189C150.496 51.3653 157.229 54.9145 164.382 54.9145C171.536 54.9145 178.269 51.3651 182.477 45.5189L177.848 42.1777C174.693 46.5633 169.854 49.0681 164.382 49.0681V49.0681Z" fill="#E2D1FF"/>
<path d="M151.548 20.6716H157.439V33.4084H151.548V20.6716Z" fill="#E2D1FF"/>
<path d="M171.536 20.6716H177.427V33.4084H171.536V20.6716Z" fill="#E2D1FF"/>
<path d="M86.9553 20.6716H92.8465V33.4084H86.9553V20.6716Z" fill="#E2D1FF"/>
<path d="M106.943 20.6716H112.834V33.4084H106.943V20.6716Z" fill="#E2D1FF"/>
<path d="M85.9033 44.0571H113.887V49.9035H85.9033V44.0571Z" fill="#E2D1FF"/>
</svg>
