<svg width="112" height="95" viewBox="0 0 112 95" fill="none" xmlns="http://www.w3.org/2000/svg">
<path d="M62.9796 0.000817473C44.7672 0.000817473 28.8756 10.0682 20.6396 24.8256H21.5677C24.9313 24.8256 28.2957 25.9699 30.9635 28.1428C37.5759 17.504 49.4073 10.4106 62.9795 10.4106C83.7435 10.4106 100.563 26.9984 100.563 47.4762C100.563 67.9538 83.6271 84.5418 62.9795 84.5418C55.0919 84.5418 47.7837 82.139 41.6355 78.0206L36.6479 87.1728C44.1875 91.9776 53.2355 94.8376 62.9799 94.8376C89.5439 94.8376 111.12 73.5592 111.12 47.3616C111.119 21.2784 89.5439 0 62.9799 0L62.9796 0.000817473Z" fill="#E2D1FF"/>
<path d="M62.9796 20.9357C60.0796 20.9357 57.7598 23.2235 57.7598 26.0835L57.759 47.4763C57.759 50.3363 60.0788 52.6241 62.9788 52.6241H80.263C83.163 52.6241 85.4828 50.3363 85.4828 47.4763C85.4828 44.6163 83.163 42.3285 80.263 42.3285H68.1995V26.0837C68.1995 23.2237 65.8797 20.9351 62.9797 20.9351L62.9796 20.9357Z" fill="#E2D1FF"/>
<path d="M34.6756 55.5987L27.2516 56.743C26.4392 56.8571 25.6276 56.1708 25.6276 55.3704V39.2398C25.6276 35.1214 19.9434 33.634 17.9714 37.2951L1.38302 68.0687C-0.240936 70.9287 2.31113 74.3609 5.55902 73.9029L12.983 72.7586C13.7954 72.6445 14.607 73.3308 14.607 74.1312V90.2618C14.607 94.3802 20.2912 95.8676 22.2632 92.2065L38.9674 61.4329C40.4756 58.4595 38.0393 55.0275 34.6756 55.5995V55.5987Z" fill="#E2D1FF"/>
</svg>
