<svg width="906" height="873" viewBox="0 0 906 873" fill="none" xmlns="http://www.w3.org/2000/svg">
<path d="M452.637 601.629C398.5 601.681 347.348 578.301 313.975 538.24C280.603 498.178 268.725 445.904 281.782 396.531C294.833 347.156 331.357 306.178 380.803 285.451C430.244 264.721 487.088 266.548 534.901 290.405C582.72 314.263 616.182 357.483 625.611 407.583C635.04 457.683 619.393 509.073 583.185 546.894C549.835 581.632 502.414 601.515 452.628 601.63L452.637 601.629ZM452.637 284.923C409.873 284.923 368.859 300.886 338.62 329.303C308.387 357.719 291.4 396.262 291.4 436.449C291.4 476.635 308.387 515.178 338.632 543.589C368.87 572.006 409.885 587.969 452.648 587.964C495.412 587.964 536.421 571.995 566.659 543.579C596.892 515.162 613.88 476.619 613.875 436.433C613.814 396.262 596.804 357.756 566.583 329.349C536.356 300.949 495.381 284.964 452.638 284.901L452.637 284.923Z" fill="#EEDFFA"/>
<path d="M452.637 284.909C448.65 284.909 445.422 281.876 445.422 278.129V179.543C445.422 175.802 448.65 172.763 452.637 172.763C456.624 172.763 459.852 175.802 459.852 179.543V278.129C459.852 279.93 459.093 281.652 457.742 282.927C456.386 284.197 454.553 284.91 452.637 284.91L452.637 284.909Z" fill="#EEDFFA"/>
<path d="M452.637 700.217C448.65 700.217 445.422 697.179 445.422 693.437V594.851C445.422 591.105 448.65 588.071 452.637 588.071C456.624 588.071 459.852 591.105 459.852 594.851V693.437C459.852 695.233 459.093 696.96 457.742 698.23C456.386 699.505 454.553 700.218 452.637 700.218L452.637 700.217Z" fill="#EEDFFA"/>
<path d="M571.793 331.28C568.875 331.28 566.245 329.63 565.127 327.096C564.008 324.562 564.628 321.643 566.688 319.707L640.87 249.99C643.688 247.336 648.262 247.336 651.08 249.985C653.904 252.639 653.904 256.937 651.086 259.585L576.893 329.291C575.542 330.566 573.704 331.279 571.793 331.279L571.793 331.28Z" fill="#EEDFFA"/>
<path d="M259.302 624.954C256.384 624.954 253.753 623.304 252.635 620.77C251.517 618.236 252.137 615.317 254.197 613.381L328.378 543.67C329.718 542.364 331.568 541.615 333.506 541.599C335.438 541.583 337.299 542.301 338.672 543.587C340.039 544.872 340.798 546.62 340.781 548.442C340.765 550.263 339.973 551.996 338.578 553.26L264.402 622.982C263.045 624.247 261.212 624.959 259.302 624.954L259.302 624.954Z" fill="#EEDFFA"/>
<path d="M726.062 443.269H621.154C617.168 443.269 613.939 440.236 613.939 436.489C613.939 432.743 617.168 429.709 621.154 429.709H726.062C730.043 429.709 733.277 432.743 733.277 436.489C733.277 440.236 730.043 443.269 726.062 443.269Z" fill="#EEDFFA"/>
<path d="M284.123 443.269H179.215C175.234 443.269 172 440.236 172 436.489C172 432.743 175.234 429.709 179.215 429.709H284.123C288.109 429.709 291.337 432.743 291.337 436.489C291.337 440.236 288.109 443.269 284.123 443.269Z" fill="#EEDFFA"/>
<path d="M645.972 624.954C644.062 624.954 642.224 624.241 640.873 622.966L566.697 553.26C563.961 550.601 564 546.371 566.78 543.753C569.565 541.136 574.067 541.099 576.896 543.67L651.083 613.381C653.149 615.317 653.763 618.236 652.645 620.77C651.532 623.304 648.902 624.954 645.984 624.954L645.972 624.954Z" fill="#EEDFFA"/>
<path d="M333.48 331.28C331.57 331.28 329.732 330.567 328.381 329.292L254.188 259.586C251.369 256.937 251.369 252.639 254.193 249.985C257.012 247.337 261.585 247.337 264.404 249.991L338.618 319.707C340.683 321.643 341.298 324.562 340.185 327.096C339.066 329.63 336.436 331.28 333.518 331.28L333.48 331.28Z" fill="#EEDFFA"/>
<path d="M419.028 547.599C411.364 547.573 403.856 545.533 397.361 541.709C390.866 537.879 385.639 532.42 382.277 525.947C372.006 522.742 363.074 516.576 356.745 508.328C350.416 500.075 347.016 490.162 347.022 479.994C347.022 479.323 347.038 478.646 347.066 477.959C334.125 473.193 323.776 463.718 318.378 451.681C312.974 439.651 312.974 426.074 318.378 414.039C323.777 402.003 334.125 392.528 347.066 387.76V386.782V386.787C347.01 375.766 350.981 365.067 358.312 356.466C365.638 347.865 375.882 341.892 387.333 339.528C394.476 331.281 404.935 326.181 416.226 325.454C427.516 324.726 438.618 328.43 446.891 335.689C455.164 342.943 459.859 353.099 459.859 363.736V509.228C459.848 519.401 455.546 529.157 447.888 536.348C440.235 543.539 429.853 547.588 419.029 547.598L419.028 547.599ZM419.028 338.926C410.362 338.936 402.25 342.927 397.311 349.614C396.193 351.128 394.471 352.148 392.538 352.445C383.845 353.751 375.932 357.934 370.235 364.241C364.532 370.553 361.42 378.566 361.459 386.84C361.453 388.448 361.575 390.051 361.819 391.643C362.339 395.056 360.047 398.298 356.492 399.167C345.822 401.79 336.946 408.742 332.272 418.134C327.604 427.526 327.621 438.38 332.327 447.757C337.034 457.133 345.932 464.059 356.614 466.646C360.246 467.515 362.561 470.85 361.946 474.321C360.445 482.928 362.428 491.753 367.505 499.053C372.577 506.353 380.379 511.598 389.372 513.763C391.659 514.315 393.514 515.876 394.344 517.957C397.279 525.247 403.691 530.815 411.659 532.99C419.622 535.17 428.216 533.697 434.854 529.03C441.493 524.357 445.408 517.02 445.43 509.226V363.734C445.419 357.157 442.639 350.85 437.689 346.198C432.739 341.551 426.028 338.934 419.029 338.924L419.028 338.926Z" fill="#EEDFFA"/>
<path d="M400.628 384.564C394.654 384.361 388.862 382.555 383.94 379.365C380.723 377.185 379.975 372.981 382.268 369.942C384.56 366.898 389.028 366.164 392.279 368.298C395.369 370.369 399.195 371.212 402.938 370.644C406.482 369.437 408.558 364.759 409.665 361.033C410.745 357.427 414.726 355.325 418.569 356.335C422.406 357.349 424.644 361.096 423.564 364.702C421.974 373.064 416.005 380.109 407.689 383.445C405.419 384.189 403.032 384.569 400.629 384.563L400.628 384.564Z" fill="#EEDFFA"/>
<path d="M409.955 516.894C407.763 516.905 405.57 516.702 403.416 516.296C399.523 515.5 397.048 511.888 397.895 508.225C398.743 504.567 402.591 502.241 406.484 503.037C410.199 503.839 414.097 503.204 417.309 501.284C419.729 497.979 420.515 493.858 419.474 489.971C418.97 486.256 421.766 482.853 425.72 482.379C429.679 481.901 433.295 484.534 433.798 488.249C435.808 496.522 433.245 505.192 426.988 511.306C422.253 515.105 416.179 517.098 409.955 516.895L409.955 516.894Z" fill="#EEDFFA"/>
<path d="M368.734 440.645C365.157 440.64 362.123 438.178 361.602 434.853C361.082 431.528 363.225 428.349 366.647 427.371C368.474 426.835 373.928 424.509 375.19 420.924C375.6 416.948 374.183 412.999 371.287 410.074C368.928 407.051 369.62 402.805 372.837 400.588C376.049 398.372 380.567 399.022 382.926 402.045C388.945 408.373 391.171 417.119 388.851 425.326C385.545 432.637 378.928 438.169 370.81 440.4C370.135 440.577 369.437 440.661 368.734 440.645L368.734 440.645Z" fill="#EEDFFA"/>
<path d="M395.766 494.768C395.251 494.768 394.736 494.716 394.238 494.612C385.268 493.639 377.422 488.482 373.373 480.901C370.677 473.356 371.735 465.077 376.258 458.348C378.423 455.32 382.748 454.44 386.048 456.36C389.348 458.275 390.445 462.308 388.529 465.477C386.502 468.505 385.838 472.164 386.685 475.65C388.18 478.907 393.28 480.552 397.3 481.369H397.305C400.915 482.092 403.363 485.261 402.975 488.716C402.582 492.166 399.481 494.788 395.788 494.783L395.766 494.768Z" fill="#EEDFFA"/>
<path d="M422.67 460.44C421.109 460.44 419.586 459.966 418.34 459.087C410.627 454.664 405.799 446.895 405.494 438.409C406.408 430.51 411.054 423.412 418.147 419.072C421.452 417.251 425.705 418.177 427.82 421.19C429.935 424.198 429.171 428.236 426.081 430.379C422.892 432.32 420.66 435.38 419.891 438.877C419.797 442.41 423.695 445.922 426.978 448.238C429.464 449.986 430.478 453.035 429.492 455.804C428.512 458.577 425.755 460.44 422.648 460.44H422.67Z" fill="#EEDFFA"/>
<path d="M486.246 547.599C475.421 547.589 465.039 543.54 457.387 536.349C449.729 529.158 445.427 519.401 445.416 509.229V363.737C445.416 353.096 450.122 342.934 458.406 335.675C466.684 328.421 477.803 324.722 489.098 325.461C500.394 326.205 510.854 331.32 517.98 339.587C529.436 341.945 539.681 347.923 547.007 356.525C554.338 365.121 558.303 375.825 558.253 386.841V387.819C571.193 392.586 581.531 402.066 586.929 414.102C592.328 426.137 592.322 439.714 586.912 451.749C581.508 463.78 571.16 473.256 558.213 478.012C558.241 478.683 558.258 479.364 558.258 480.046C558.269 490.219 554.869 500.131 548.54 508.38C542.211 516.628 533.273 522.793 523.008 525.999C519.63 532.467 514.403 537.915 507.908 541.73C501.407 545.55 493.905 547.584 486.247 547.6L486.246 547.599ZM486.246 338.926C479.247 338.936 472.536 341.554 467.586 346.2C462.636 350.852 459.856 357.159 459.845 363.736V509.228C459.845 517.038 463.76 524.391 470.41 529.073C477.055 533.756 485.66 535.229 493.639 533.038C501.613 530.853 508.03 525.264 510.954 517.959C511.785 515.878 513.64 514.317 515.926 513.765C524.919 511.6 532.715 506.355 537.793 499.055C542.871 491.754 544.853 482.93 543.347 474.323C542.738 470.852 545.052 467.517 548.685 466.648C559.366 464.062 568.263 457.136 572.971 447.759C577.678 438.382 577.694 427.527 573.026 418.136C568.353 408.743 559.477 401.791 548.807 399.169C545.252 398.3 542.959 395.058 543.48 391.645C543.724 390.053 543.845 388.45 543.84 386.842C543.879 378.569 540.767 370.554 535.063 364.243C529.366 357.936 521.453 353.753 512.76 352.447C510.828 352.15 509.106 351.13 507.987 349.616C503.042 342.924 494.919 338.928 486.248 338.928L486.246 338.926Z" fill="#EEDFFA"/>
<path d="M504.646 384.564C502.232 384.569 499.84 384.194 497.564 383.445C489.247 380.109 483.284 373.064 481.689 364.702C480.609 361.096 482.846 357.35 486.683 356.335C490.526 355.326 494.507 357.428 495.587 361.034C496.689 364.754 498.771 369.437 502.315 370.645C506.058 371.201 509.89 370.358 512.979 368.287C516.235 366.128 520.737 366.851 523.04 369.911C525.338 372.965 524.569 377.201 521.313 379.366C516.396 382.555 510.615 384.356 504.646 384.564L504.646 384.564Z" fill="#EEDFFA"/>
<path d="M495.318 516.894C489.1 517.097 483.02 515.104 478.286 511.311C472.028 505.197 469.465 496.527 471.475 488.253C471.979 484.538 475.594 481.91 479.553 482.384C483.507 482.863 486.303 486.261 485.799 489.976C484.758 493.863 485.545 497.984 487.964 501.288C491.181 503.203 495.074 503.833 498.789 503.047C502.682 502.251 506.525 504.577 507.372 508.235C508.219 511.898 505.744 515.509 501.846 516.306C499.698 516.706 497.51 516.904 495.318 516.894L495.318 516.894Z" fill="#EEDFFA"/>
<path d="M536.54 440.645C535.848 440.645 535.156 440.551 534.491 440.364C526.379 438.137 519.756 432.605 516.45 425.29C514.13 417.089 516.356 408.342 522.375 402.009C523.466 400.463 525.183 399.407 527.126 399.084C529.075 398.762 531.074 399.199 532.663 400.297C534.252 401.4 535.293 403.065 535.543 404.902C535.792 406.744 535.232 408.602 533.987 410.038C531.091 412.962 529.673 416.917 530.083 420.887C531.345 424.472 536.822 426.809 538.643 427.334L538.638 427.339C542.065 428.312 544.208 431.502 543.682 434.827C543.156 438.152 540.116 440.614 536.539 440.608L536.54 440.645Z" fill="#EEDFFA"/>
<path d="M509.508 494.768C505.814 494.773 502.714 492.156 502.321 488.701C501.933 485.251 504.38 482.076 507.991 481.353C512.016 480.542 517.132 478.876 518.622 475.609C519.453 472.148 518.794 468.521 516.789 465.514C514.685 462.329 515.726 458.146 519.115 456.168C522.503 454.191 526.955 455.169 529.059 458.349C533.578 465.077 534.641 473.356 531.944 480.901C527.897 488.483 520.051 493.639 511.08 494.612C510.565 494.722 510.039 494.774 509.507 494.768L509.508 494.768Z" fill="#EEDFFA"/>
<path d="M482.603 460.44C479.497 460.44 476.739 458.577 475.759 455.804C474.774 453.035 475.787 449.986 478.273 448.238C481.557 445.927 485.455 442.41 485.361 438.877C484.591 435.38 482.36 432.32 479.17 430.379C476.08 428.235 475.316 424.198 477.431 421.19C479.547 418.177 483.799 417.251 487.105 419.072C494.198 423.412 498.844 430.509 499.757 438.409C499.453 446.896 494.624 454.664 486.911 459.087C485.671 459.961 484.159 460.44 482.603 460.44H482.603Z" fill="#EEDFFA"/>
<circle cx="453" cy="90" r="90" fill="#E5FF9B"/>
<path d="M415.735 99H418.879L412.255 81.984H408.919L402.295 99H405.343L406.927 94.728H414.127L415.735 99ZM410.527 85.104L413.119 92.064H407.935L410.527 85.104ZM426.512 92.256C426.512 90.72 427.352 89.496 428.936 89.496C430.688 89.496 431.336 90.648 431.336 92.088V99H434.12V91.608C434.12 89.04 432.752 86.976 429.896 86.976C428.6 86.976 427.208 87.528 426.44 88.872V87.312H423.728V99H426.512V92.256ZM438.853 99H442.045C442.261 98.64 444.445 95.448 444.685 95.088L447.397 99H450.661L446.413 93.048L450.517 87.312H447.349L444.805 91.056C444.589 90.72 442.453 87.672 442.237 87.312H438.925L443.101 93.096L438.853 99ZM458.333 99V87.312H455.573V99H458.333ZM455.141 83.208C455.141 84.216 455.957 85.008 456.941 85.008C457.949 85.008 458.765 84.216 458.765 83.208C458.765 82.2 457.949 81.384 456.941 81.384C455.957 81.384 455.141 82.2 455.141 83.208ZM466.749 91.872C466.845 90.624 467.853 89.28 469.605 89.28C471.525 89.28 472.437 90.504 472.485 91.872H466.749ZM472.797 94.92C472.413 96.072 471.549 96.96 469.869 96.96C468.141 96.96 466.749 95.688 466.677 93.912H475.221C475.245 93.864 475.293 93.48 475.293 93.024C475.293 89.328 473.181 86.952 469.581 86.952C466.629 86.952 463.893 89.4 463.893 93.096C463.893 97.056 466.701 99.36 469.869 99.36C472.677 99.36 474.525 97.704 475.149 95.664L472.797 94.92ZM484.361 83.736H481.841V85.488C481.841 86.52 481.289 87.312 480.041 87.312H479.441V89.784H481.601V95.664C481.601 97.848 482.945 99.144 485.105 99.144C486.113 99.144 486.641 98.952 486.809 98.88V96.576C486.689 96.6 486.233 96.672 485.849 96.672C484.817 96.672 484.361 96.24 484.361 95.208V89.784H486.785V87.312H484.361V83.736ZM496.265 103.728L503.705 87.312H500.753L497.609 94.704L494.249 87.312H491.105L496.097 97.608L493.289 103.728H496.265Z" fill="#5F30DF"/>
<circle cx="712" cy="189" r="90" fill="#E5FF9B"/>
<path d="M644.378 198.36V186.624H647.426C650.378 186.624 652.802 188.544 652.802 192.528C652.802 196.464 650.354 198.36 647.402 198.36H644.378ZM647.498 201C652.106 201 655.802 197.976 655.802 192.528C655.802 187.056 652.154 183.984 647.522 183.984H641.498V201H647.498ZM663.449 193.872C663.545 192.624 664.553 191.28 666.305 191.28C668.225 191.28 669.137 192.504 669.185 193.872H663.449ZM669.497 196.92C669.113 198.072 668.249 198.96 666.569 198.96C664.841 198.96 663.449 197.688 663.377 195.912H671.921C671.945 195.864 671.993 195.48 671.993 195.024C671.993 191.328 669.881 188.952 666.281 188.952C663.329 188.952 660.593 191.4 660.593 195.096C660.593 199.056 663.401 201.36 666.569 201.36C669.377 201.36 671.225 199.704 671.849 197.664L669.497 196.92ZM680.294 205.56V199.68C680.894 200.568 682.166 201.288 683.846 201.288C687.206 201.288 689.342 198.648 689.342 195.144C689.342 191.688 687.398 189.048 683.942 189.048C682.142 189.048 680.798 189.888 680.222 190.896V189.312H677.534V205.56H680.294ZM686.558 195.144C686.558 197.376 685.262 198.816 683.414 198.816C681.59 198.816 680.27 197.376 680.27 195.144C680.27 192.96 681.59 191.52 683.414 191.52C685.286 191.52 686.558 192.96 686.558 195.144ZM701.738 189.24C701.618 189.216 701.33 189.168 700.994 189.168C699.458 189.168 698.162 189.912 697.61 191.184V189.312H694.898V201H697.682V195.432C697.682 193.248 698.666 192 700.826 192C701.114 192 701.426 192.024 701.738 192.072V189.24ZM708.769 193.872C708.865 192.624 709.873 191.28 711.625 191.28C713.545 191.28 714.457 192.504 714.505 193.872H708.769ZM714.817 196.92C714.433 198.072 713.569 198.96 711.889 198.96C710.161 198.96 708.769 197.688 708.697 195.912H717.241C717.265 195.864 717.313 195.48 717.313 195.024C717.313 191.328 715.201 188.952 711.601 188.952C708.649 188.952 705.913 191.4 705.913 195.096C705.913 199.056 708.721 201.36 711.889 201.36C714.697 201.36 716.545 199.704 717.169 197.664L714.817 196.92ZM721.821 197.832C721.965 199.152 723.261 201.36 726.645 201.36C729.621 201.36 731.061 199.392 731.061 197.616C731.061 195.888 729.909 194.544 727.701 194.064L725.925 193.704C725.205 193.56 724.749 193.104 724.749 192.48C724.749 191.76 725.445 191.136 726.429 191.136C727.989 191.136 728.493 192.216 728.589 192.888L730.941 192.216C730.749 191.064 729.693 188.952 726.429 188.952C724.005 188.952 722.133 190.68 722.133 192.72C722.133 194.328 723.213 195.672 725.277 196.128L727.005 196.512C727.941 196.704 728.373 197.184 728.373 197.808C728.373 198.528 727.773 199.152 726.621 199.152C725.133 199.152 724.341 198.216 724.245 197.16L721.821 197.832ZM735.67 197.832C735.814 199.152 737.11 201.36 740.494 201.36C743.47 201.36 744.91 199.392 744.91 197.616C744.91 195.888 743.758 194.544 741.55 194.064L739.774 193.704C739.054 193.56 738.598 193.104 738.598 192.48C738.598 191.76 739.294 191.136 740.278 191.136C741.838 191.136 742.342 192.216 742.438 192.888L744.79 192.216C744.598 191.064 743.542 188.952 740.278 188.952C737.854 188.952 735.982 190.68 735.982 192.72C735.982 194.328 737.062 195.672 739.126 196.128L740.854 196.512C741.79 196.704 742.222 197.184 742.222 197.808C742.222 198.528 741.622 199.152 740.47 199.152C738.982 199.152 738.19 198.216 738.094 197.16L735.67 197.832ZM753.311 201V189.312H750.551V201H753.311ZM750.119 185.208C750.119 186.216 750.935 187.008 751.919 187.008C752.927 187.008 753.743 186.216 753.743 185.208C753.743 184.2 752.927 183.384 751.919 183.384C750.935 183.384 750.119 184.2 750.119 185.208ZM764.918 198.864C763.214 198.864 761.654 197.568 761.654 195.144C761.654 192.72 763.214 191.472 764.918 191.472C766.646 191.472 768.182 192.72 768.182 195.144C768.182 197.592 766.646 198.864 764.918 198.864ZM764.918 188.952C761.438 188.952 758.87 191.568 758.87 195.144C758.87 198.744 761.438 201.36 764.918 201.36C768.422 201.36 770.99 198.744 770.99 195.144C770.99 191.568 768.422 188.952 764.918 188.952ZM779.345 194.256C779.345 192.72 780.185 191.496 781.769 191.496C783.521 191.496 784.169 192.648 784.169 194.088V201H786.953V193.608C786.953 191.04 785.585 188.976 782.729 188.976C781.433 188.976 780.041 189.528 779.273 190.872V189.312H776.561V201H779.345V194.256Z" fill="#5F30DF"/>
<circle cx="816" cy="430" r="90" fill="#E5FF9B"/>
<path d="M799.711 404.512L795.655 391.984H792.655L788.671 404.416L785.263 391.984H782.239L787.063 409H790.015L794.143 396.136L798.271 409H801.247L806.023 391.984H803.047L799.711 404.512ZM815.251 406.864C813.547 406.864 811.987 405.568 811.987 403.144C811.987 400.72 813.547 399.472 815.251 399.472C816.979 399.472 818.515 400.72 818.515 403.144C818.515 405.592 816.979 406.864 815.251 406.864ZM815.251 396.952C811.771 396.952 809.203 399.568 809.203 403.144C809.203 406.744 811.771 409.36 815.251 409.36C818.755 409.36 821.323 406.744 821.323 403.144C821.323 399.568 818.755 396.952 815.251 396.952ZM833.734 397.24C833.614 397.216 833.326 397.168 832.99 397.168C831.454 397.168 830.158 397.912 829.606 399.184V397.312H826.894V409H829.678V403.432C829.678 401.248 830.662 400 832.822 400C833.11 400 833.422 400.024 833.734 400.072V397.24ZM849.882 397.312H846.186L841.698 402.04V391.624H838.938V409H841.698V405.736L843.138 404.224L846.57 409H849.978L845.082 402.256L849.882 397.312ZM777.294 427.24C777.174 427.216 776.886 427.168 776.55 427.168C775.014 427.168 773.718 427.912 773.166 429.184V427.312H770.454V439H773.238V433.432C773.238 431.248 774.222 430 776.382 430C776.67 430 776.982 430.024 777.294 430.072V427.24ZM784.325 431.872C784.421 430.624 785.429 429.28 787.181 429.28C789.101 429.28 790.013 430.504 790.061 431.872H784.325ZM790.373 434.92C789.989 436.072 789.125 436.96 787.445 436.96C785.717 436.96 784.325 435.688 784.253 433.912H792.797C792.821 433.864 792.869 433.48 792.869 433.024C792.869 429.328 790.757 426.952 787.157 426.952C784.205 426.952 781.469 429.4 781.469 433.096C781.469 437.056 784.277 439.36 787.445 439.36C790.253 439.36 792.101 437.704 792.725 435.664L790.373 434.92ZM801.194 439V421.624H798.41V439H801.194ZM806.898 435.832C806.898 437.68 808.41 439.36 810.858 439.36C812.754 439.36 813.906 438.4 814.458 437.512C814.458 438.448 814.554 438.928 814.578 439H817.17C817.146 438.88 817.026 438.184 817.026 437.128V431.32C817.026 428.992 815.658 426.952 812.058 426.952C809.178 426.952 807.354 428.752 807.138 430.768L809.682 431.344C809.802 430.168 810.618 429.232 812.082 429.232C813.618 429.232 814.29 430.024 814.29 431.008C814.29 431.416 814.098 431.752 813.426 431.848L810.426 432.304C808.434 432.592 806.898 433.744 806.898 435.832ZM811.386 437.176C810.282 437.176 809.682 436.456 809.682 435.664C809.682 434.704 810.378 434.224 811.242 434.08L814.29 433.624V434.152C814.29 436.432 812.946 437.176 811.386 437.176ZM826.752 423.736H824.232V425.488C824.232 426.52 823.68 427.312 822.432 427.312H821.832V429.784H823.992V435.664C823.992 437.848 825.336 439.144 827.496 439.144C828.504 439.144 829.032 438.952 829.2 438.88V436.576C829.08 436.6 828.624 436.672 828.24 436.672C827.208 436.672 826.752 436.24 826.752 435.208V429.784H829.176V427.312H826.752V423.736ZM836.744 431.872C836.84 430.624 837.848 429.28 839.6 429.28C841.52 429.28 842.432 430.504 842.48 431.872H836.744ZM842.792 434.92C842.408 436.072 841.544 436.96 839.864 436.96C838.136 436.96 836.744 435.688 836.672 433.912H845.216C845.24 433.864 845.288 433.48 845.288 433.024C845.288 429.328 843.176 426.952 839.576 426.952C836.624 426.952 833.888 429.4 833.888 433.096C833.888 437.056 836.696 439.36 839.864 439.36C842.672 439.36 844.52 437.704 845.144 435.664L842.792 434.92ZM852.7 433.12C852.7 430.888 854.044 429.472 855.868 429.472C857.692 429.472 858.94 430.864 858.94 433.096C858.94 435.328 857.668 436.84 855.844 436.84C853.948 436.84 852.7 435.352 852.7 433.12ZM861.628 421.624H858.916V428.68C858.556 427.936 857.524 427 855.484 427C852.196 427 849.916 429.76 849.916 433.12C849.916 436.648 852.172 439.288 855.532 439.288C857.188 439.288 858.412 438.472 858.964 437.488C858.964 437.968 859.036 438.736 859.084 439H861.748C861.724 438.808 861.628 437.92 861.628 436.864V421.624ZM779.216 465.832C779.36 467.152 780.656 469.36 784.04 469.36C787.016 469.36 788.456 467.392 788.456 465.616C788.456 463.888 787.304 462.544 785.096 462.064L783.32 461.704C782.6 461.56 782.144 461.104 782.144 460.48C782.144 459.76 782.84 459.136 783.824 459.136C785.384 459.136 785.888 460.216 785.984 460.888L788.336 460.216C788.144 459.064 787.088 456.952 783.824 456.952C781.4 456.952 779.528 458.68 779.528 460.72C779.528 462.328 780.608 463.672 782.672 464.128L784.4 464.512C785.336 464.704 785.768 465.184 785.768 465.808C785.768 466.528 785.168 467.152 784.016 467.152C782.528 467.152 781.736 466.216 781.64 465.16L779.216 465.832ZM797.625 453.736H795.105V455.488C795.105 456.52 794.553 457.312 793.305 457.312H792.705V459.784H794.865V465.664C794.865 467.848 796.209 469.144 798.369 469.144C799.377 469.144 799.905 468.952 800.073 468.88V466.576C799.953 466.6 799.497 466.672 799.113 466.672C798.081 466.672 797.625 466.24 797.625 465.208V459.784H800.049V457.312H797.625V453.736ZM812.419 457.24C812.299 457.216 812.011 457.168 811.675 457.168C810.139 457.168 808.843 457.912 808.291 459.184V457.312H805.579V469H808.363V463.432C808.363 461.248 809.347 460 811.507 460C811.795 460 812.107 460.024 812.419 460.072V457.24ZM819.45 461.872C819.546 460.624 820.554 459.28 822.306 459.28C824.226 459.28 825.138 460.504 825.186 461.872H819.45ZM825.498 464.92C825.114 466.072 824.25 466.96 822.57 466.96C820.842 466.96 819.45 465.688 819.378 463.912H827.922C827.946 463.864 827.994 463.48 827.994 463.024C827.994 459.328 825.882 456.952 822.282 456.952C819.33 456.952 816.594 459.4 816.594 463.096C816.594 467.056 819.402 469.36 822.57 469.36C825.378 469.36 827.226 467.704 827.85 465.664L825.498 464.92ZM832.502 465.832C832.646 467.152 833.942 469.36 837.326 469.36C840.302 469.36 841.742 467.392 841.742 465.616C841.742 463.888 840.59 462.544 838.382 462.064L836.606 461.704C835.886 461.56 835.43 461.104 835.43 460.48C835.43 459.76 836.126 459.136 837.11 459.136C838.67 459.136 839.174 460.216 839.27 460.888L841.622 460.216C841.43 459.064 840.374 456.952 837.11 456.952C834.686 456.952 832.814 458.68 832.814 460.72C832.814 462.328 833.894 463.672 835.958 464.128L837.686 464.512C838.622 464.704 839.054 465.184 839.054 465.808C839.054 466.528 838.454 467.152 837.302 467.152C835.814 467.152 835.022 466.216 834.926 465.16L832.502 465.832ZM846.351 465.832C846.495 467.152 847.791 469.36 851.175 469.36C854.151 469.36 855.591 467.392 855.591 465.616C855.591 463.888 854.439 462.544 852.231 462.064L850.455 461.704C849.735 461.56 849.279 461.104 849.279 460.48C849.279 459.76 849.975 459.136 850.959 459.136C852.519 459.136 853.023 460.216 853.119 460.888L855.471 460.216C855.279 459.064 854.223 456.952 850.959 456.952C848.535 456.952 846.663 458.68 846.663 460.72C846.663 462.328 847.743 463.672 849.807 464.128L851.535 464.512C852.471 464.704 852.903 465.184 852.903 465.808C852.903 466.528 852.303 467.152 851.151 467.152C849.663 467.152 848.871 466.216 848.775 465.16L846.351 465.832Z" fill="#5F30DF"/>
<circle cx="713" cy="674" r="90" fill="#E5FF9B"/>
<circle cx="453" cy="783" r="90" fill="#E5FF9B"/>
<path d="M688.17 678.48C688.17 674.376 691.002 672.336 693.858 672.336C696.738 672.336 699.57 674.376 699.57 678.48C699.57 682.584 696.738 684.624 693.858 684.624C691.002 684.624 688.17 682.584 688.17 678.48ZM685.218 678.48C685.218 684.072 689.394 687.36 693.858 687.36C698.322 687.36 702.522 684.072 702.522 678.48C702.522 672.912 698.322 669.624 693.858 669.624C689.394 669.624 685.218 672.912 685.218 678.48ZM716.002 687.36C720.346 687.36 722.938 684.6 723.706 681.72L721.066 680.856C720.49 682.776 718.858 684.6 716.002 684.6C713.098 684.6 710.362 682.488 710.362 678.504C710.362 674.376 713.17 672.336 715.978 672.336C718.834 672.336 720.418 673.992 720.922 676.056L723.634 675.144C722.866 672.168 720.298 669.624 715.978 669.624C711.562 669.624 707.41 672.96 707.41 678.504C707.41 684.048 711.418 687.36 716.002 687.36ZM732.39 684.36V672.624H735.438C738.39 672.624 740.814 674.544 740.814 678.528C740.814 682.464 738.366 684.36 735.414 684.36H732.39ZM735.51 687C740.118 687 743.814 683.976 743.814 678.528C743.814 673.056 740.166 669.984 735.534 669.984H729.51V687H735.51Z" fill="#5F30DF"/>
<path d="M387.101 777H390.365L386.525 769.992C388.901 769.416 390.365 767.568 390.365 765.144C390.365 762.264 388.325 759.984 385.037 759.984H378.509V777H381.413V770.28H383.525L387.101 777ZM381.413 767.736V762.528H384.509C386.285 762.528 387.437 763.56 387.437 765.144C387.437 766.704 386.285 767.736 384.509 767.736H381.413ZM397.624 769.872C397.72 768.624 398.728 767.28 400.48 767.28C402.4 767.28 403.312 768.504 403.36 769.872H397.624ZM403.672 772.92C403.288 774.072 402.424 774.96 400.744 774.96C399.016 774.96 397.624 773.688 397.552 771.912H406.096C406.12 771.864 406.168 771.48 406.168 771.024C406.168 767.328 404.056 764.952 400.456 764.952C397.504 764.952 394.768 767.4 394.768 771.096C394.768 775.056 397.576 777.36 400.744 777.36C403.552 777.36 405.4 775.704 406.024 773.664L403.672 772.92ZM414.492 777V759.624H411.708V777H414.492ZM420.196 773.832C420.196 775.68 421.708 777.36 424.156 777.36C426.052 777.36 427.204 776.4 427.756 775.512C427.756 776.448 427.852 776.928 427.876 777H430.468C430.444 776.88 430.324 776.184 430.324 775.128V769.32C430.324 766.992 428.956 764.952 425.356 764.952C422.476 764.952 420.652 766.752 420.436 768.768L422.98 769.344C423.1 768.168 423.916 767.232 425.38 767.232C426.916 767.232 427.588 768.024 427.588 769.008C427.588 769.416 427.396 769.752 426.724 769.848L423.724 770.304C421.732 770.592 420.196 771.744 420.196 773.832ZM424.684 775.176C423.58 775.176 422.98 774.456 422.98 773.664C422.98 772.704 423.676 772.224 424.54 772.08L427.588 771.624V772.152C427.588 774.432 426.244 775.176 424.684 775.176ZM440.051 761.736H437.531V763.488C437.531 764.52 436.979 765.312 435.731 765.312H435.131V767.784H437.291V773.664C437.291 775.848 438.635 777.144 440.795 777.144C441.803 777.144 442.331 776.952 442.499 776.88V774.576C442.379 774.6 441.923 774.672 441.539 774.672C440.507 774.672 440.051 774.24 440.051 773.208V767.784H442.475V765.312H440.051V761.736ZM450.975 777V765.312H448.215V777H450.975ZM447.783 761.208C447.783 762.216 448.599 763.008 449.583 763.008C450.591 763.008 451.407 762.216 451.407 761.208C451.407 760.2 450.591 759.384 449.583 759.384C448.599 759.384 447.783 760.2 447.783 761.208ZM462.583 774.864C460.879 774.864 459.319 773.568 459.319 771.144C459.319 768.72 460.879 767.472 462.583 767.472C464.311 767.472 465.847 768.72 465.847 771.144C465.847 773.592 464.311 774.864 462.583 774.864ZM462.583 764.952C459.103 764.952 456.535 767.568 456.535 771.144C456.535 774.744 459.103 777.36 462.583 777.36C466.087 777.36 468.655 774.744 468.655 771.144C468.655 767.568 466.087 764.952 462.583 764.952ZM473.193 773.832C473.337 775.152 474.633 777.36 478.017 777.36C480.993 777.36 482.433 775.392 482.433 773.616C482.433 771.888 481.281 770.544 479.073 770.064L477.297 769.704C476.577 769.56 476.121 769.104 476.121 768.48C476.121 767.76 476.817 767.136 477.801 767.136C479.361 767.136 479.865 768.216 479.961 768.888L482.313 768.216C482.121 767.064 481.065 764.952 477.801 764.952C475.377 764.952 473.505 766.68 473.505 768.72C473.505 770.328 474.585 771.672 476.649 772.128L478.377 772.512C479.313 772.704 479.745 773.184 479.745 773.808C479.745 774.528 479.145 775.152 477.993 775.152C476.505 775.152 475.713 774.216 475.617 773.16L473.193 773.832ZM490.858 770.136C490.906 768.648 491.746 767.496 493.282 767.496C495.034 767.496 495.682 768.648 495.682 770.088V777H498.466V769.608C498.466 767.04 497.074 764.976 494.194 764.976C492.97 764.976 491.65 765.408 490.858 766.44V759.624H488.074V777H490.858V770.136ZM507.495 777V765.312H504.735V777H507.495ZM504.303 761.208C504.303 762.216 505.119 763.008 506.103 763.008C507.111 763.008 507.927 762.216 507.927 761.208C507.927 760.2 507.111 759.384 506.103 759.384C505.119 759.384 504.303 760.2 504.303 761.208ZM516.727 781.56V775.68C517.327 776.568 518.599 777.288 520.279 777.288C523.639 777.288 525.775 774.648 525.775 771.144C525.775 767.688 523.831 765.048 520.375 765.048C518.575 765.048 517.231 765.888 516.655 766.896V765.312H513.967V781.56H516.727ZM522.991 771.144C522.991 773.376 521.695 774.816 519.847 774.816C518.023 774.816 516.703 773.376 516.703 771.144C516.703 768.96 518.023 767.52 519.847 767.52C521.719 767.52 522.991 768.96 522.991 771.144ZM394.36 811.56V805.68C394.96 806.568 396.232 807.288 397.912 807.288C401.272 807.288 403.408 804.648 403.408 801.144C403.408 797.688 401.464 795.048 398.008 795.048C396.208 795.048 394.864 795.888 394.288 796.896V795.312H391.6V811.56H394.36ZM400.624 801.144C400.624 803.376 399.328 804.816 397.48 804.816C395.656 804.816 394.336 803.376 394.336 801.144C394.336 798.96 395.656 797.52 397.48 797.52C399.352 797.52 400.624 798.96 400.624 801.144ZM415.805 795.24C415.685 795.216 415.397 795.168 415.061 795.168C413.525 795.168 412.229 795.912 411.677 797.184V795.312H408.965V807H411.749V801.432C411.749 799.248 412.733 798 414.893 798C415.181 798 415.493 798.024 415.805 798.072V795.24ZM426.028 804.864C424.324 804.864 422.764 803.568 422.764 801.144C422.764 798.72 424.324 797.472 426.028 797.472C427.756 797.472 429.292 798.72 429.292 801.144C429.292 803.592 427.756 804.864 426.028 804.864ZM426.028 794.952C422.548 794.952 419.98 797.568 419.98 801.144C419.98 804.744 422.548 807.36 426.028 807.36C429.532 807.36 432.1 804.744 432.1 801.144C432.1 797.568 429.532 794.952 426.028 794.952ZM440.382 807V805.44C441.054 806.568 442.326 807.288 443.982 807.288C447.39 807.288 449.478 804.624 449.478 801.096C449.478 797.664 447.582 795 444.078 795C442.278 795 440.934 795.84 440.406 796.752V789.624H437.67V807H440.382ZM446.67 801.12C446.67 803.424 445.35 804.816 443.526 804.816C441.75 804.816 440.382 803.424 440.382 801.12C440.382 798.792 441.75 797.472 443.526 797.472C445.374 797.472 446.67 798.792 446.67 801.12ZM457.818 807V789.624H455.034V807H457.818ZM466.233 799.872C466.329 798.624 467.337 797.28 469.089 797.28C471.009 797.28 471.921 798.504 471.969 799.872H466.233ZM472.281 802.92C471.897 804.072 471.033 804.96 469.353 804.96C467.625 804.96 466.233 803.688 466.161 801.912H474.705C474.729 801.864 474.777 801.48 474.777 801.024C474.777 797.328 472.665 794.952 469.065 794.952C466.113 794.952 463.377 797.4 463.377 801.096C463.377 805.056 466.185 807.36 469.353 807.36C472.161 807.36 474.009 805.704 474.633 803.664L472.281 802.92ZM483.078 807V800.064C483.078 798.576 484.014 797.472 485.502 797.472C487.086 797.472 487.758 798.528 487.758 799.872V807H490.494V800.064C490.494 798.624 491.454 797.472 492.918 797.472C494.478 797.472 495.174 798.504 495.174 799.872V807H497.862V799.416C497.862 796.32 495.846 794.976 493.734 794.976C492.222 794.976 490.854 795.504 489.942 797.04C489.318 795.672 487.974 794.976 486.438 794.976C485.118 794.976 483.654 795.6 482.982 796.8V795.312H480.318V807H483.078ZM503.119 803.832C503.263 805.152 504.559 807.36 507.943 807.36C510.919 807.36 512.359 805.392 512.359 803.616C512.359 801.888 511.207 800.544 508.999 800.064L507.223 799.704C506.503 799.56 506.047 799.104 506.047 798.48C506.047 797.76 506.743 797.136 507.727 797.136C509.287 797.136 509.791 798.216 509.887 798.888L512.239 798.216C512.047 797.064 510.991 794.952 507.727 794.952C505.303 794.952 503.431 796.68 503.431 798.72C503.431 800.328 504.511 801.672 506.575 802.128L508.303 802.512C509.239 802.704 509.671 803.184 509.671 803.808C509.671 804.528 509.071 805.152 507.919 805.152C506.431 805.152 505.639 804.216 505.543 803.16L503.119 803.832Z" fill="#5F30DF"/>
<circle cx="209" cy="672" r="90" fill="#E5FF9B"/>
<path d="M180.748 668.808V663.528H183.748C185.572 663.528 186.676 664.56 186.676 666.192C186.676 667.8 185.572 668.808 183.748 668.808H180.748ZM184.18 671.352C187.444 671.352 189.604 669.168 189.604 666.168C189.604 663.192 187.444 660.984 184.18 660.984H177.868V678H180.748V671.352H184.18ZM207.402 663.696V660.984H193.458V663.696H198.978V678H201.858V663.696H207.402ZM223.828 664.968C223.444 663.072 221.884 660.624 217.876 660.624C214.708 660.624 212.092 662.976 212.092 665.832C212.092 668.376 213.82 670.08 216.412 670.608L218.812 671.112C220.276 671.424 221.092 672.312 221.092 673.416C221.092 674.736 220.036 675.768 217.996 675.768C215.548 675.768 214.276 674.136 214.108 672.36L211.42 673.128C211.684 675.576 213.676 678.36 217.996 678.36C221.884 678.36 224.02 675.84 224.02 673.2C224.02 670.8 222.412 668.904 219.412 668.304L216.964 667.8C215.644 667.512 214.972 666.696 214.972 665.616C214.972 664.32 216.172 663.168 217.9 663.168C220.18 663.168 221.068 664.728 221.236 665.784L223.828 664.968ZM232.771 675.36V663.624H235.819C238.771 663.624 241.195 665.544 241.195 669.528C241.195 673.464 238.747 675.36 235.795 675.36H232.771ZM235.891 678C240.499 678 244.195 674.976 244.195 669.528C244.195 664.056 240.547 660.984 235.915 660.984H229.891V678H235.891Z" fill="#5F30DF"/>
<circle cx="90" cy="434" r="90" fill="#E5FF9B"/>
<path d="M60.8209 410.968C60.4369 409.072 58.8769 406.624 54.8689 406.624C51.7009 406.624 49.0849 408.976 49.0849 411.832C49.0849 414.376 50.8129 416.08 53.4049 416.608L55.8049 417.112C57.2689 417.424 58.0849 418.312 58.0849 419.416C58.0849 420.736 57.0289 421.768 54.9889 421.768C52.5409 421.768 51.2689 420.136 51.1009 418.36L48.4129 419.128C48.6769 421.576 50.6689 424.36 54.9889 424.36C58.8769 424.36 61.0129 421.84 61.0129 419.2C61.0129 416.8 59.4049 414.904 56.4049 414.304L53.9569 413.8C52.6369 413.512 51.9649 412.696 51.9649 411.616C51.9649 410.32 53.1649 409.168 54.8929 409.168C57.1729 409.168 58.0609 410.728 58.2289 411.784L60.8209 410.968ZM69.3109 424V406.624H66.5269V424H69.3109ZM77.7259 416.872C77.8219 415.624 78.8299 414.28 80.5819 414.28C82.5019 414.28 83.4139 415.504 83.4619 416.872H77.7259ZM83.7739 419.92C83.3899 421.072 82.5259 421.96 80.8459 421.96C79.1179 421.96 77.7259 420.688 77.6539 418.912H86.1979C86.2219 418.864 86.2699 418.48 86.2699 418.024C86.2699 414.328 84.1579 411.952 80.5579 411.952C77.6059 411.952 74.8699 414.4 74.8699 418.096C74.8699 422.056 77.6779 424.36 80.8459 424.36C83.6539 424.36 85.5019 422.704 86.1259 420.664L83.7739 419.92ZM93.7543 416.872C93.8503 415.624 94.8583 414.28 96.6103 414.28C98.5303 414.28 99.4423 415.504 99.4903 416.872H93.7543ZM99.8023 419.92C99.4183 421.072 98.5543 421.96 96.8743 421.96C95.1463 421.96 93.7543 420.688 93.6823 418.912H102.226C102.25 418.864 102.298 418.48 102.298 418.024C102.298 414.328 100.186 411.952 96.5863 411.952C93.6343 411.952 90.8983 414.4 90.8983 418.096C90.8983 422.056 93.7063 424.36 96.8743 424.36C99.6823 424.36 101.53 422.704 102.154 420.664L99.8023 419.92ZM110.599 428.56V422.68C111.199 423.568 112.471 424.288 114.151 424.288C117.511 424.288 119.647 421.648 119.647 418.144C119.647 414.688 117.703 412.048 114.247 412.048C112.447 412.048 111.103 412.888 110.527 413.896V412.312H107.839V428.56H110.599ZM116.863 418.144C116.863 420.376 115.567 421.816 113.719 421.816C111.895 421.816 110.575 420.376 110.575 418.144C110.575 415.96 111.895 414.52 113.719 414.52C115.591 414.52 116.863 415.96 116.863 418.144ZM47.3395 450.832C47.3395 452.68 48.8515 454.36 51.2995 454.36C53.1955 454.36 54.3475 453.4 54.8995 452.512C54.8995 453.448 54.9955 453.928 55.0195 454H57.6115C57.5875 453.88 57.4675 453.184 57.4675 452.128V446.32C57.4675 443.992 56.0995 441.952 52.4995 441.952C49.6195 441.952 47.7955 443.752 47.5795 445.768L50.1235 446.344C50.2435 445.168 51.0595 444.232 52.5235 444.232C54.0595 444.232 54.7315 445.024 54.7315 446.008C54.7315 446.416 54.5395 446.752 53.8675 446.848L50.8675 447.304C48.8755 447.592 47.3395 448.744 47.3395 450.832ZM51.8275 452.176C50.7235 452.176 50.1235 451.456 50.1235 450.664C50.1235 449.704 50.8195 449.224 51.6835 449.08L54.7315 448.624V449.152C54.7315 451.432 53.3875 452.176 51.8275 452.176ZM66.473 458.56V452.68C67.073 453.568 68.345 454.288 70.025 454.288C73.385 454.288 75.521 451.648 75.521 448.144C75.521 444.688 73.577 442.048 70.121 442.048C68.321 442.048 66.977 442.888 66.401 443.896V442.312H63.713V458.56H66.473ZM72.737 448.144C72.737 450.376 71.441 451.816 69.593 451.816C67.769 451.816 66.449 450.376 66.449 448.144C66.449 445.96 67.769 444.52 69.593 444.52C71.465 444.52 72.737 445.96 72.737 448.144ZM83.8613 447.256C83.8613 445.72 84.7013 444.496 86.2853 444.496C88.0373 444.496 88.6853 445.648 88.6853 447.088V454H91.4693V446.608C91.4693 444.04 90.1013 441.976 87.2453 441.976C85.9493 441.976 84.5573 442.528 83.7893 443.872V442.312H81.0773V454H83.8613V447.256ZM99.6826 446.872C99.7786 445.624 100.787 444.28 102.539 444.28C104.459 444.28 105.371 445.504 105.419 446.872H99.6826ZM105.731 449.92C105.347 451.072 104.483 451.96 102.803 451.96C101.075 451.96 99.6826 450.688 99.6106 448.912H108.155C108.179 448.864 108.227 448.48 108.227 448.024C108.227 444.328 106.115 441.952 102.515 441.952C99.5626 441.952 96.8266 444.4 96.8266 448.096C96.8266 452.056 99.6346 454.36 102.803 454.36C105.611 454.36 107.459 452.704 108.083 450.664L105.731 449.92ZM113.047 450.832C113.047 452.68 114.559 454.36 117.007 454.36C118.903 454.36 120.055 453.4 120.607 452.512C120.607 453.448 120.703 453.928 120.727 454H123.319C123.295 453.88 123.175 453.184 123.175 452.128V446.32C123.175 443.992 121.807 441.952 118.207 441.952C115.327 441.952 113.503 443.752 113.287 445.768L115.831 446.344C115.951 445.168 116.767 444.232 118.231 444.232C119.767 444.232 120.439 445.024 120.439 446.008C120.439 446.416 120.247 446.752 119.575 446.848L116.575 447.304C114.583 447.592 113.047 448.744 113.047 450.832ZM117.535 452.176C116.431 452.176 115.831 451.456 115.831 450.664C115.831 449.704 116.527 449.224 117.391 449.08L120.439 448.624V449.152C120.439 451.432 119.095 452.176 117.535 452.176Z" fill="#5F30DF"/>
<circle cx="202" cy="185" r="90" fill="#E5FF9B"/>
<path d="M173.785 177V174.76H167.425V171H173.185V168.82H167.425V165.06H173.785V162.82H165.025V177H173.785ZM178.071 174.36C178.071 175.9 179.331 177.3 181.371 177.3C182.951 177.3 183.911 176.5 184.371 175.76C184.371 176.54 184.451 176.94 184.471 177H186.631C186.611 176.9 186.511 176.32 186.511 175.44V170.6C186.511 168.66 185.371 166.96 182.371 166.96C179.971 166.96 178.451 168.46 178.271 170.14L180.391 170.62C180.491 169.64 181.171 168.86 182.391 168.86C183.671 168.86 184.231 169.52 184.231 170.34C184.231 170.68 184.071 170.96 183.511 171.04L181.011 171.42C179.351 171.66 178.071 172.62 178.071 174.36ZM181.811 175.48C180.891 175.48 180.391 174.88 180.391 174.22C180.391 173.42 180.971 173.02 181.691 172.9L184.231 172.52V172.96C184.231 174.86 183.111 175.48 181.811 175.48ZM194.616 164.28H192.516V165.74C192.516 166.6 192.056 167.26 191.016 167.26H190.516V169.32H192.316V174.22C192.316 176.04 193.436 177.12 195.236 177.12C196.076 177.12 196.516 176.96 196.656 176.9V174.98C196.556 175 196.176 175.06 195.856 175.06C194.996 175.06 194.616 174.7 194.616 173.84V169.32H196.636V167.26H194.616V164.28ZM203.72 177V167.26H201.42V177H203.72ZM201.06 163.84C201.06 164.68 201.74 165.34 202.56 165.34C203.4 165.34 204.08 164.68 204.08 163.84C204.08 163 203.4 162.32 202.56 162.32C201.74 162.32 201.06 163 201.06 163.84ZM211.433 171.38C211.433 170.1 212.133 169.08 213.453 169.08C214.913 169.08 215.453 170.04 215.453 171.24V177H217.773V170.84C217.773 168.7 216.633 166.98 214.253 166.98C213.173 166.98 212.013 167.44 211.373 168.56V167.26H209.113V177H211.433V171.38ZM222.297 177.54C222.557 179.5 224.357 181.1 226.937 181.1C230.597 181.1 231.937 178.68 231.937 176.08V167.26H229.697V168.5C229.277 167.7 228.337 167.08 226.817 167.08C224.137 167.08 222.317 169.22 222.317 171.82C222.317 174.56 224.217 176.56 226.817 176.56C228.237 176.56 229.217 175.9 229.637 175.14V176.16C229.637 178.14 228.717 179.08 226.877 179.08C225.537 179.08 224.597 178.18 224.437 176.98L222.297 177.54ZM227.197 174.58C225.677 174.58 224.657 173.52 224.657 171.82C224.657 170.16 225.717 169.08 227.197 169.08C228.637 169.08 229.697 170.16 229.697 171.82C229.697 173.5 228.677 174.58 227.197 174.58ZM150.304 197.1C150.304 195.24 151.424 194.06 152.944 194.06C154.464 194.06 155.504 195.22 155.504 197.08C155.504 198.94 154.444 200.2 152.924 200.2C151.344 200.2 150.304 198.96 150.304 197.1ZM157.744 187.52H155.484V193.4C155.184 192.78 154.324 192 152.624 192C149.884 192 147.984 194.3 147.984 197.1C147.984 200.04 149.864 202.24 152.664 202.24C154.044 202.24 155.064 201.56 155.524 200.74C155.524 201.14 155.584 201.78 155.624 202H157.844C157.824 201.84 157.744 201.1 157.744 200.22V187.52ZM165.475 202V192.26H163.175V202H165.475ZM162.815 188.84C162.815 189.68 163.495 190.34 164.315 190.34C165.155 190.34 165.835 189.68 165.835 188.84C165.835 188 165.155 187.32 164.315 187.32C163.495 187.32 162.815 188 162.815 188.84ZM170.008 199.36C170.128 200.46 171.208 202.3 174.028 202.3C176.508 202.3 177.708 200.66 177.708 199.18C177.708 197.74 176.748 196.62 174.908 196.22L173.428 195.92C172.828 195.8 172.448 195.42 172.448 194.9C172.448 194.3 173.028 193.78 173.848 193.78C175.148 193.78 175.568 194.68 175.648 195.24L177.608 194.68C177.448 193.72 176.568 191.96 173.848 191.96C171.828 191.96 170.268 193.4 170.268 195.1C170.268 196.44 171.168 197.56 172.888 197.94L174.328 198.26C175.108 198.42 175.468 198.82 175.468 199.34C175.468 199.94 174.968 200.46 174.008 200.46C172.768 200.46 172.108 199.68 172.028 198.8L170.008 199.36ZM186.63 200.22C185.21 200.22 183.91 199.14 183.91 197.12C183.91 195.1 185.21 194.06 186.63 194.06C188.07 194.06 189.35 195.1 189.35 197.12C189.35 199.16 188.07 200.22 186.63 200.22ZM186.63 191.96C183.73 191.96 181.59 194.14 181.59 197.12C181.59 200.12 183.73 202.3 186.63 202.3C189.55 202.3 191.69 200.12 191.69 197.12C191.69 194.14 189.55 191.96 186.63 191.96ZM202.032 192.2C201.932 192.18 201.692 192.14 201.412 192.14C200.132 192.14 199.052 192.76 198.592 193.82V192.26H196.332V202H198.652V197.36C198.652 195.54 199.472 194.5 201.272 194.5C201.512 194.5 201.772 194.52 202.032 194.56V192.2ZM207.831 197.1C207.831 195.24 208.951 194.06 210.471 194.06C211.991 194.06 213.031 195.22 213.031 197.08C213.031 198.94 211.971 200.2 210.451 200.2C208.871 200.2 207.831 198.96 207.831 197.1ZM215.271 187.52H213.011V193.4C212.711 192.78 211.851 192 210.151 192C207.411 192 205.511 194.3 205.511 197.1C205.511 200.04 207.391 202.24 210.191 202.24C211.571 202.24 212.591 201.56 213.051 200.74C213.051 201.14 213.111 201.78 213.151 202H215.371C215.351 201.84 215.271 201.1 215.271 200.22V187.52ZM222.322 196.06C222.402 195.02 223.242 193.9 224.702 193.9C226.302 193.9 227.062 194.92 227.102 196.06H222.322ZM227.362 198.6C227.042 199.56 226.322 200.3 224.922 200.3C223.482 200.3 222.322 199.24 222.262 197.76H229.382C229.402 197.72 229.442 197.4 229.442 197.02C229.442 193.94 227.682 191.96 224.682 191.96C222.222 191.96 219.942 194 219.942 197.08C219.942 200.38 222.282 202.3 224.922 202.3C227.262 202.3 228.802 200.92 229.322 199.22L227.362 198.6ZM239.759 192.2C239.659 192.18 239.419 192.14 239.139 192.14C237.859 192.14 236.779 192.76 236.319 193.82V192.26H234.059V202H236.379V197.36C236.379 195.54 237.199 194.5 238.999 194.5C239.239 194.5 239.499 194.52 239.759 194.56V192.2ZM243.256 199.36C243.376 200.46 244.456 202.3 247.276 202.3C249.756 202.3 250.956 200.66 250.956 199.18C250.956 197.74 249.996 196.62 248.156 196.22L246.676 195.92C246.076 195.8 245.696 195.42 245.696 194.9C245.696 194.3 246.276 193.78 247.096 193.78C248.396 193.78 248.816 194.68 248.896 195.24L250.856 194.68C250.696 193.72 249.816 191.96 247.096 191.96C245.076 191.96 243.516 193.4 243.516 195.1C243.516 196.44 244.416 197.56 246.136 197.94L247.576 198.26C248.356 198.42 248.716 198.82 248.716 199.34C248.716 199.94 248.216 200.46 247.256 200.46C246.016 200.46 245.356 199.68 245.276 198.8L243.256 199.36Z" fill="#5F30DF"/>
</svg>
