<svg width="223" height="148" viewBox="0 0 223 148" fill="none" xmlns="http://www.w3.org/2000/svg">
<path d="M23.908 74.2138C30.3189 74.1944 35.5099 69.6478 35.5493 64.0204C35.5112 58.3905 30.3189 53.827 23.908 53.8174C17.4715 53.8271 12.2711 58.3891 12.2711 64.0204C12.2711 69.6492 17.4715 74.1942 23.908 74.2138Z" fill="#D4FDC0"/>
<path d="M131.551 126.162H49.7736L0.138672 85.7001L10.931 75.522L56.0078 112.263H131.549L131.551 126.162Z" fill="#D4FDC0"/>
<path d="M119.83 107.626C118.19 107.626 116.523 107.233 115.036 106.378L94.9005 94.901L67.9535 106.808C64.7622 108.219 60.9218 107.797 58.2211 105.749L34.0288 87.3877C29.8839 84.1234 28.7236 78.7841 31.9087 75.5572C35.0984 72.3346 41.1601 71.0453 46.1541 74.9174L66.1823 90.1247L91.4934 79.112C94.2911 77.8756 97.6329 78.0369 100.266 79.5321L124.64 93.4416C128.722 95.767 129.872 100.556 127.222 104.116C125.532 106.397 122.715 107.625 119.831 107.625L119.83 107.626Z" fill="#D4FDC0"/>
<path d="M173.751 63.4146C167.134 63.4146 161.748 58.6927 161.748 52.889C161.748 47.0683 167.132 42.3506 173.751 42.3506C180.405 42.3506 185.772 47.064 185.772 52.889C185.772 58.6959 180.402 63.4146 173.751 63.4146V63.4146Z" fill="#D4FDC0"/>
<path d="M221.721 98.6815C221.721 98.6815 215.34 75.9138 205.069 66.5756C201.524 62.4921 191.038 57.7883 184.776 64.7411C180.484 71.0319 176.632 80.9568 173.149 88.0501L155.232 88.0195L142.578 74.3866L138.422 77.3491L149.781 89.5898C148.445 90.6649 147.598 92.1892 147.595 93.9041C147.585 97.1558 150.592 99.7999 154.31 99.8053L164.671 99.815C161.181 100.52 157.692 102.841 157.133 106.511L144.714 137.845C143.077 142.267 145.412 146.548 149.567 147.643C155.543 149.142 159.945 145.617 160.964 142.645L171.772 114.956H212.957C218.89 114.956 222.426 110.662 222.801 106.878C223.172 103.12 221.72 98.6813 221.72 98.6813L221.721 98.6815ZM188.314 99.2476H182.648L194.046 77.1432C194.414 76.4408 195.72 75.3393 197.126 76.164C197.859 76.5924 199.351 77.9151 198.982 78.6161L188.314 99.2476Z" fill="#D4FDC0"/>
<path d="M97.3936 34.7844C94.461 34.7844 92.0775 32.6926 92.0775 30.1169C92.0775 27.5413 94.461 25.4495 97.3936 25.4495C100.342 25.4495 102.721 27.5371 102.721 30.1169C102.722 32.6928 100.34 34.7844 97.3936 34.7844Z" fill="#D4FDC0"/>
<path d="M113.018 34.7844C110.085 34.7844 107.702 32.6926 107.702 30.1169C107.702 27.5413 110.085 25.4495 113.018 25.4495C115.968 25.4495 118.345 27.5371 118.345 30.1169C118.346 32.6928 115.965 34.7844 113.018 34.7844Z" fill="#D4FDC0"/>
<path d="M128.646 34.7844C125.713 34.7844 123.332 32.6926 123.332 30.1169C123.332 27.5413 125.713 25.4495 128.646 25.4495C131.599 25.4495 133.978 27.5371 133.978 30.1169C133.978 32.6928 131.591 34.7844 128.646 34.7844Z" fill="#D4FDC0"/>
<path d="M112.9 61.2605H51.687L82.6042 45.8695C79.5542 41.2337 77.9564 36.0196 77.9564 30.6301C77.9564 13.7397 93.6317 0 112.9 0C132.176 0 147.858 13.74 147.858 30.6301C147.858 47.5201 132.176 61.2602 112.9 61.2602V61.2605ZM74.4574 55.9906H112.9C128.856 55.9906 141.842 44.6137 141.842 30.6315C141.842 16.6508 128.856 5.271 112.9 5.271C96.9483 5.271 83.9692 16.6479 83.9692 30.6315C83.9692 35.8929 85.8148 40.9542 89.3012 45.267L91.2261 47.644L74.4574 55.9906Z" fill="#D4FDC0"/>
</svg>
