<svg width="148" height="148" viewBox="0 0 148 148" fill="none" xmlns="http://www.w3.org/2000/svg">
<path fill-rule="evenodd" clip-rule="evenodd" d="M10.6059 74.0005C10.6059 38.9917 38.9893 10.6051 74 10.6051C109.011 10.6051 137.394 38.989 137.394 74.0005C137.394 109.009 109.011 137.396 74 137.396C38.9893 137.396 10.6059 109.012 10.6059 74.0005V74.0005ZM74 0C57.4749 0 42.2172 5.41649 29.898 14.5717C11.7537 28.0614 0 49.6563 0 74C0 98.3452 11.7537 119.941 29.898 133.428C42.2172 142.583 57.4749 148 74 148C90.5251 148 105.783 142.583 118.102 133.428C136.246 119.939 148 98.3436 148 74C148 49.6548 136.246 28.0594 118.102 14.5717C105.783 5.41649 90.5251 0 74 0V0Z" fill="#D4FDC0"/>
<path fill-rule="evenodd" clip-rule="evenodd" d="M58.9116 49.3265C50.2344 48.5547 43.8443 52.4728 40.5593 60.5275C37.7194 68.0922 40.1551 76.3505 45.4797 82.1694C50.4063 87.5227 57.2109 91.6142 62.736 96.4882C67.3625 100.735 70.0371 104.118 73.5406 109.269L73.9897 109.902L74.4328 109.269C77.9362 104.118 80.5924 100.735 85.2373 96.4882C90.7457 91.6126 97.567 87.5232 102.477 82.1694C107.818 76.3505 110.256 68.0917 107.403 60.5275C104.131 52.473 97.7404 48.5551 89.0631 49.3265C82.258 49.9268 78.6161 52.1788 73.9894 56.9158C69.3406 52.179 65.7146 49.9271 58.9095 49.3265H58.9116Z" fill="#D4FDC0"/>
</svg>
